<svg width="26" height="23" viewBox="0 0 26 23" fill="none" xmlns="http://www.w3.org/2000/svg">
<rect x="0.5" y="0.5" width="25" height="21" rx="5.5" fill="#004672" stroke="white"/>
<path d="M14.08 12.52V15.16C13.824 15.48 13.44 15.8 12.928 16.12C12.4267 16.44 11.824 16.7067 11.12 16.92C10.416 17.1227 9.632 17.224 8.768 17.224C7.552 17.224 6.49067 16.9893 5.584 16.52C4.67733 16.04 3.97333 15.3627 3.472 14.488C2.97067 13.6133 2.72 12.5787 2.72 11.384C2.72 10.1893 2.96533 9.16 3.456 8.296C3.95733 7.432 4.66667 6.76533 5.584 6.296C6.512 5.816 7.60533 5.576 8.864 5.576C9.45067 5.576 10.0213 5.61867 10.576 5.704C11.1307 5.77867 11.6427 5.88 12.112 6.008C12.5813 6.136 12.9707 6.28533 13.28 6.456L13.312 9.192H13.168C12.9653 8.46667 12.672 7.89067 12.288 7.464C11.904 7.02667 11.456 6.71733 10.944 6.536C10.4427 6.344 9.90933 6.248 9.344 6.248C8.48 6.248 7.744 6.46133 7.136 6.888C6.53867 7.304 6.08533 7.90133 5.776 8.68C5.47733 9.45867 5.328 10.392 5.328 11.48C5.328 12.504 5.46667 13.4 5.744 14.168C6.032 14.9253 6.448 15.512 6.992 15.928C7.536 16.3333 8.19733 16.5413 8.976 16.552C9.37067 16.552 9.74933 16.4933 10.112 16.376C10.4853 16.248 10.8107 16.0667 11.088 15.832C11.3653 15.5973 11.5627 15.3093 11.68 14.968L11.696 12.52C11.696 12.04 11.424 11.8 10.88 11.8H10.624V11.64H15.12V11.8H14.88C14.3253 11.8 14.0587 12.04 14.08 12.52Z" fill="white"/>
<path d="M18.304 5.8V17H15.904V5.8H18.304ZM21.936 11.144V11.816H18.256V11.144H21.936ZM22.72 5.8V6.488H18.256V5.8H22.72ZM21.936 11.784V13.32H21.776V13.192C21.776 12.7973 21.648 12.472 21.392 12.216C21.136 11.96 20.8107 11.8267 20.416 11.816V11.784H21.936ZM21.936 9.64V11.176H20.416V11.144C20.8107 11.1333 21.136 11 21.392 10.744C21.648 10.4773 21.776 10.1467 21.776 9.752V9.64H21.936ZM22.72 6.44V8.216H22.56V8.056C22.56 7.576 22.416 7.19733 22.128 6.92C21.8507 6.632 21.472 6.488 20.992 6.488V6.44H22.72ZM22.72 5.512V5.976L20.768 5.8C21.0027 5.8 21.248 5.784 21.504 5.752C21.7707 5.72 22.016 5.68267 22.24 5.64C22.464 5.59733 22.624 5.55467 22.72 5.512ZM15.952 15.832V17H14.672V16.84C14.672 16.84 14.704 16.84 14.768 16.84C14.8427 16.84 14.88 16.84 14.88 16.84C15.1573 16.84 15.392 16.744 15.584 16.552C15.7867 16.3493 15.8933 16.1093 15.904 15.832H15.952ZM15.952 6.968H15.904C15.8933 6.69067 15.7867 6.456 15.584 6.264C15.392 6.06133 15.1573 5.96 14.88 5.96C14.88 5.96 14.8427 5.96 14.768 5.96C14.704 5.96 14.672 5.96 14.672 5.96V5.8H15.952V6.968ZM18.256 15.832H18.304C18.3147 16.1093 18.416 16.3493 18.608 16.552C18.8107 16.744 19.0507 16.84 19.328 16.84C19.328 16.84 19.36 16.84 19.424 16.84C19.488 16.84 19.5253 16.84 19.536 16.84V17H18.256V15.832Z" fill="white"/>
</svg>
